<?xml version="1.0" encoding="UTF-8"?>
<svg width="128" height="128" viewBox="0 0 128 128" xmlns="http://www.w3.org/2000/svg">
  <defs>
    <linearGradient id="bg" x1="0%" y1="0%" x2="100%" y2="100%">
      <stop offset="0%" style="stop-color:#667eea;stop-opacity:1" />
      <stop offset="100%" style="stop-color:#764ba2;stop-opacity:1" />
    </linearGradient>
  </defs>
  
  <!-- 背景 -->
  <rect width="128" height="128" rx="20" fill="url(#bg)"/>
  
  <!-- 日本地図のシルエット -->
  <path d="M30,40 L40,35 L50,40 L60,35 L70,40 L80,35 L90,40 L100,35 L110,40 L120,35 L125,40 L125,50 L120,55 L110,50 L100,55 L90,50 L80,55 L70,50 L60,55 L50,50 L40,55 L30,50 Z" 
        fill="white" opacity="0.9"/>
  
  <!-- 北海道 -->
  <rect x="35" y="45" width="8" height="6" fill="white" opacity="0.8"/>
  
  <!-- 本州 -->
  <path d="M40,55 L50,50 L60,55 L70,50 L80,55 L90,50 L100,55 L110,50 L115,55 L115,65 L110,70 L100,65 L90,70 L80,65 L70,70 L60,65 L50,70 L40,65 Z" 
        fill="white" opacity="0.8"/>
  
  <!-- 四国 -->
  <rect x="85" y="70" width="6" height="4" fill="white" opacity="0.8"/>
  
  <!-- 九州 -->
  <path d="M90,75 L100,70 L110,75 L115,70 L115,80 L110,85 L100,80 L90,85 Z" 
        fill="white" opacity="0.8"/>
  
  <!-- クリックカーソル -->
  <circle cx="70" cy="60" r="3" fill="#ff9800"/>
  <path d="M70,60 L75,55 L73,53 L68,58 Z" fill="#ff9800"/>
</svg> 